# xmcd
#
# Track frame offsets: 
#        150
#        16760
#        32387
#        52147
#        72380
#        88027
#        114142
#        133237
#        147700
#        161460
#        180630
#        197187
#        214335
#        233640
#        250957
#
# Disc length: 3575 seconds
#
# Revision: 1
# Processed by: cddbd v1.5.2PL0 Copyright (c) Steve Scherf et al.
# Submitted via: ExactAudioCopy v0.99pb4
#
DISCID=d70df50f
DTITLE=European Jazz Trio - Classics
DYEAR=2003
DGENRE=Jazz
TTITLE0=Bach - Allemande (French Suite No.5-1: BWV 816-1)
TTITLE1=Mozart - Turkish March (Sonata No.11 Rondo)
TTITLE2=Bizet - Carmen ~ Habanera
TTITLE3=Mozart - Adagio (Piano Concerto No.23 K.488)
TTITLE4=Liszt - Liebestraum No.3
TTITLE5=Grieg - Peer Gynt ~ Morning
TTITLE6=Chopin - Mazurka No.1 (Op.46-1)
TTITLE7=Ravel - Pavane Pour Une Infante Defunte
TTITLE8=Mozart - Symphony No.40 Allegro Molto (K.550)
TTITLE9=Debussy - Clair De Lune (Suite Bergamasque No.3)
TTITLE10=Anonymous - Salarello (14th Century)
TTITLE11=Handel - Ombra Mai Fu (Serse Largo)
TTITLE12=Chopin - Etude No.17 (Op.25-5)
TTITLE13=Faure - Pavane (Op.50)
TTITLE14=Schumann - Von Fremden Landern Und Menschen (Kinderszenen Op.
TTITLE14=15-1)
EXTD=
EXTT0=
EXTT1=
EXTT2=
EXTT3=
EXTT4=
EXTT5=
EXTT6=
EXTT7=
EXTT8=
EXTT9=
EXTT10=
EXTT11=
EXTT12=
EXTT13=
EXTT14=
PLAYORDER=
